# xmcd
#
# Track frame offsets: 
#        150
#        12130
#        23189
#        32346
#        44445
#        56175
#        65805
#        76955
#        89460
#        100235
#        109863
#        123016
#        135867
#        149379
#        160411
#        170328
#        182651
#        195050
#        207240
#        217657
#        231081
#        242934
#        256999
#        265449
#        276964
#        291292
#
# Disc length: 4110 seconds
#
# Revision: 2
# Processed by: cddbd v1.5.2PL0 Copyright (c) Steve Scherf et al.
# Submitted via: ExactAudioCopy v1.0b1
#
DISCID=6e100c1a
DTITLE=Various Artist - The UK Sue Label Story - The World Of Guy Stevens
DYEAR=2004
DGENRE=R&B
TTITLE0=Inez and Charlie Foxx - Mockingbird (mono)
TTITLE1=Chris Kenner - Land Of 1,000 Dances (mono)
TTITLE2=Ike and Tina Turner - I Can't Believe What You Say (mono)
TTITLE3=Donnie Elbert - A Little Piece Of Leather (mono)
TTITLE4=Harold Betters - Do Anything You Wanna (Part 1) (mono)
TTITLE5=Harold Betters - Do Anything You Wanna (Part 2) (mono)
TTITLE6=The Daylighters - Oh Mom (Teach Me How To Uncle Willie) (mono)
TTITLE7=Wilbert Harrison - Let's Stick Together (mono)
TTITLE8=The Pleasures - Music City (mono)
TTITLE9=Ernestine Anderson - Keep An Eye On Love (mono)
TTITLE10=Jimmy McGriff - All About My Girl (mono)
TTITLE11=Birdlegs and Pauline and Their Versatility Birds - Spring (mono)
TTITLE12=O.V. Wright and The Keys - That's How Strong My Love Is (mono)
TTITLE13=Derek Martin - Daddy Rollin' Stone (mono)
TTITLE14=The Phil Upchurch Combo - You Can't Sit Down (mono)
TTITLE15=Baby Washington - That's How Heartaches Are Made (mono)
TTITLE16=Bobby Parker - Watch Your Step (mono)
TTITLE17=The Manhattans - I Wanna Be (Your Everything) (stereo)
TTITLE18=Louisiana Red - I Done Woke Up (mono)
TTITLE19=Wild Jimmy Spruill - Hard Grind (mono)
TTITLE20=The Olympics - The Bounce (mono)
TTITLE21=Lowell Fulson - Too Many Drivers (mono)
TTITLE22=Joe Tex - Yum, Yum, Yum (mono)
TTITLE23=J.B. Lenoir and His African Hunch Rhythm - I Sing 'Um The Way I
TTITLE23=Feel (mono)
TTITLE24=Elmore James and His Broom Dusters - Dust My Blues (mono)
TTITLE25=Billy Preston - Billy's Bag (stereo)
EXTD=
EXTT0=
EXTT1=
EXTT2=
EXTT3=
EXTT4=
EXTT5=
EXTT6=
EXTT7=
EXTT8=
EXTT9=
EXTT10=
EXTT11=
EXTT12=
EXTT13=
EXTT14=
EXTT15=
EXTT16=
EXTT17=
EXTT18=
EXTT19=
EXTT20=
EXTT21=
EXTT22=
EXTT23=
EXTT24=
EXTT25=
PLAYORDER=
